<svg width="43" height="33" viewBox="0 0 43 33" fill="none" xmlns="http://www.w3.org/2000/svg">
<mask id="mask0_1273_850" style="mask-type:luminance" maskUnits="userSpaceOnUse" x="0" y="4" width="36" height="29">
<path d="M35.0006 4H0.682617V32.702H35.0006V4Z" fill="white"/>
</mask>
<g mask="url(#mask0_1273_850)">
<path fill-rule="evenodd" clip-rule="evenodd" d="M16.9826 28.57C17.1759 29.1086 17.2155 29.6904 17.0968 30.2503C16.9781 30.8101 16.7059 31.3259 16.3106 31.7398C15.9154 32.1536 15.4127 32.4493 14.8589 32.5936C14.3051 32.7379 13.7221 32.7251 13.1751 32.5568C12.6281 32.3884 12.1389 32.0711 11.7621 31.6403C11.3853 31.2096 11.1359 30.6825 11.0417 30.118C10.9476 29.5535 11.0126 28.9739 11.2293 28.4442C11.4459 27.9145 11.8058 27.4557 12.2686 27.119L12.2486 27.067L5.22659 6.14396H1.75459C1.48212 6.1273 1.22627 6.00731 1.03923 5.80848C0.852189 5.60964 0.748047 5.34694 0.748047 5.07396C0.748047 4.80098 0.852189 4.53828 1.03923 4.33945C1.22627 4.14062 1.48212 4.02063 1.75459 4.00396H5.91959C6.06097 4.00251 6.20123 4.02916 6.33221 4.08238C6.46319 4.1356 6.5823 4.21432 6.68259 4.31396C6.80704 4.42568 6.90712 4.56185 6.97659 4.71396L8.81559 10.146L34.0826 10.113C35.0376 10.113 35.1026 10.799 34.9126 11.303L34.0626 13.964C33.6706 15.193 33.2626 16.364 32.8626 17.547L31.0906 22.882C30.9006 23.451 30.8026 24.118 30.1296 24.268C29.7784 24.3121 29.4244 24.3295 29.0706 24.32L13.6216 24.314L14.2626 26.537H27.5146C28.17 26.5372 28.8083 26.7464 29.3367 27.134C29.8652 27.5217 30.2564 28.0676 30.4535 28.6927C30.6507 29.3178 30.6435 29.9894 30.433 30.6101C30.2225 31.2307 29.8197 31.7682 29.283 32.1444C28.7464 32.5207 28.1038 32.7161 27.4485 32.7023C26.7932 32.6885 26.1594 32.4663 25.639 32.0678C25.1186 31.6694 24.7388 31.1155 24.5546 30.4865C24.3703 29.8575 24.3914 29.1862 24.6146 28.57H16.9826Z" fill="black"/>
</g>
<rect x="24.5005" y="0.5" width="18" height="18" rx="9" fill="white"/>
<rect x="24.5005" y="0.5" width="18" height="18" rx="9" stroke="black"/>
<path d="M30.5455 12.5V10.8L33.4455 8.72C33.8855 8.41 34.0555 8.14 34.0555 7.87C34.0555 7.57 33.8255 7.35 33.4255 7.35C33.0255 7.35 32.6555 7.6 32.0755 8.22L30.5355 6.91C31.3455 5.91 32.1655 5.37 33.6255 5.37C35.2255 5.37 36.3755 6.33 36.3755 7.66V7.68C36.3755 8.75 35.8055 9.33 34.9655 9.87L33.7155 10.67H36.4455V12.5H30.5455Z" fill="black"/>
</svg>
