<svg width="89" height="40" viewBox="0 0 89 40" fill="none" xmlns="http://www.w3.org/2000/svg">
<g clip-path="url(#clip0_1273_836)">
<path d="M12.4278 0H0.000488281V40H12.4278V0Z" fill="#DB1F26"/>
<path d="M59.5681 0H47.1411V40H59.5681V0Z" fill="#DB1F26"/>
<path d="M73.8402 0H61.4128V40H73.8402V0Z" fill="#DB1F26"/>
<path d="M88.1118 14.2441H75.6848V40.0009H88.1118V14.2441Z" fill="#DB1F26"/>
<mask id="mask0_1273_836" style="mask-type:luminance" maskUnits="userSpaceOnUse" x="0" y="0" width="89" height="40">
<path d="M88.4252 0H0.000488281V39.9646H88.4252V0Z" fill="white"/>
</mask>
<g mask="url(#mask0_1273_836)">
<path d="M46.0048 23.7984C46.0049 20.6008 45.0567 17.475 43.2803 14.8163C41.5038 12.1575 38.9788 10.0853 36.0247 8.8616C33.0705 7.6379 29.8198 7.3177 26.6836 7.94148C23.5474 8.56527 20.6667 10.105 18.4056 12.366C16.1445 14.6271 14.6047 17.5078 13.9809 20.6439C13.357 23.7801 13.6771 27.0308 14.9008 29.985C16.1244 32.9392 18.1966 35.4642 20.8553 37.2407C23.5139 39.0173 26.6397 39.9655 29.8373 39.9655C31.9604 39.9656 34.0628 39.5474 36.0243 38.7349C37.9858 37.9225 39.7681 36.7316 41.2694 35.2304C42.7707 33.7291 43.9616 31.9468 44.7741 29.9853C45.5866 28.0238 46.0048 25.9215 46.0048 23.7984ZM23.8884 23.7984C23.8883 22.6217 24.2372 21.4715 24.8909 20.4932C25.5446 19.5148 26.4737 18.7523 27.5608 18.302C28.6479 17.8517 29.844 17.7338 30.9981 17.9634C32.1521 18.1929 33.2122 18.7595 34.0442 19.5915C34.8762 20.4235 35.4428 21.4836 35.6723 22.6376C35.9019 23.7917 35.7841 24.9879 35.3338 26.0749C34.8835 27.162 34.1209 28.0911 33.1426 28.7448C32.1642 29.3985 31.014 29.7474 29.8373 29.7473C28.2596 29.7472 26.7465 29.1204 25.6309 28.0048C24.5153 26.8892 23.8885 25.3761 23.8884 23.7984Z" fill="#DB1F26"/>
<path d="M81.9382 12.974C80.6552 12.9739 79.4011 12.5934 78.3343 11.8806C77.2676 11.1678 76.4361 10.1547 75.9452 8.96936C75.4542 7.78402 75.3258 6.47972 75.5761 5.22139C75.8264 3.96306 76.4442 2.8072 77.3514 1.9C78.2586 0.992786 79.4145 0.374965 80.6728 0.124658C81.9311 -0.12565 83.2354 0.00279817 84.4208 0.493759C85.6061 0.98472 86.6192 1.81614 87.3321 2.88289C88.0449 3.94964 88.4253 5.20381 88.4254 6.4868C88.4254 8.2073 87.7419 9.85734 86.5253 11.0739C85.3088 12.2905 83.6587 12.974 81.9382 12.974Z" fill="#DB1F26"/>
</g>
</g>
<defs>
<clipPath id="clip0_1273_836">
<rect width="88.4247" height="40" fill="white" transform="translate(0.000488281)"/>
</clipPath>
</defs>
</svg>
