{
	"asset":{
		"generator":"Khronos glTF Blender I/O v4.3.47",
		"version":"2.0"
	},
	"extensionsUsed":[
		"EXT_texture_webp"
	],
	"scene":0,
	"scenes":[
		{
			"name":"Scene",
			"nodes":[
				0,
				1
			]
		}
	],
	"nodes":[
		{
			"name":"Empty",
			"rotation":[
				0.5,
				0.5,
				-0.5,
				0.4999999701976776
			],
			"scale":[
				1.540901780128479,
				1.540901780128479,
				1.540901780128479
			]
		},
		{
			"mesh":0,
			"name":"B\u00e9zierCurve"
		}
	],
	"materials":[
		{
			"doubleSided":true,
			"name":"Body",
			"pbrMetallicRoughness":{
				"roughnessFactor":0.29527556896209717
			}
		},
		{
			"doubleSided":true,
			"name":"Silver",
			"pbrMetallicRoughness":{
				"baseColorFactor":[
					0.800000011920929,
					0.800000011920929,
					0.800000011920929,
					1
				],
				"roughnessFactor":0.11417323350906372
			}
		}
	],
	"meshes":[
		{
			"name":"B\u00e9zierCurve",
			"primitives":[
				{
					"attributes":{
						"POSITION":0,
						"NORMAL":1,
						"TEXCOORD_0":2
					},
					"indices":3,
					"material":0
				},
				{
					"attributes":{
						"POSITION":4,
						"NORMAL":5,
						"TEXCOORD_0":6
					},
					"indices":7,
					"material":1
				}
			]
		}
	],
	"accessors":[
		{
			"bufferView":0,
			"componentType":5126,
			"count":7373,
			"max":[
				1.9682586193084717,
				3.6004550457000732,
				1.9682586193084717
			],
			"min":[
				-1.9682586193084717,
				-3.317021369934082,
				-1.9682586193084717
			],
			"type":"VEC3"
		},
		{
			"bufferView":1,
			"componentType":5126,
			"count":7373,
			"type":"VEC3"
		},
		{
			"bufferView":2,
			"componentType":5126,
			"count":7373,
			"type":"VEC2"
		},
		{
			"bufferView":3,
			"componentType":5123,
			"count":43200,
			"type":"SCALAR"
		},
		{
			"bufferView":4,
			"componentType":5126,
			"count":9999,
			"max":[
				1.7622336149215698,
				3.8323702812194824,
				1.7622336149215698
			],
			"min":[
				-1.7622336149215698,
				-3.790574312210083,
				-1.7622336149215698
			],
			"type":"VEC3"
		},
		{
			"bufferView":5,
			"componentType":5126,
			"count":9999,
			"type":"VEC3"
		},
		{
			"bufferView":6,
			"componentType":5126,
			"count":9999,
			"type":"VEC2"
		},
		{
			"bufferView":7,
			"componentType":5123,
			"count":58200,
			"type":"SCALAR"
		}
	],
	"bufferViews":[
		{
			"buffer":0,
			"byteLength":88476,
			"byteOffset":0,
			"target":34962
		},
		{
			"buffer":0,
			"byteLength":88476,
			"byteOffset":88476,
			"target":34962
		},
		{
			"buffer":0,
			"byteLength":58984,
			"byteOffset":176952,
			"target":34962
		},
		{
			"buffer":0,
			"byteLength":86400,
			"byteOffset":235936,
			"target":34963
		},
		{
			"buffer":0,
			"byteLength":119988,
			"byteOffset":322336,
			"target":34962
		},
		{
			"buffer":0,
			"byteLength":119988,
			"byteOffset":442324,
			"target":34962
		},
		{
			"buffer":0,
			"byteLength":79992,
			"byteOffset":562312,
			"target":34962
		},
		{
			"buffer":0,
			"byteLength":116400,
			"byteOffset":642304,
			"target":34963
		}
	],
	"samplers":[
		{
			"magFilter":9729,
			"minFilter":9987
		}
	],
	"buffers":[
		{
			"byteLength":758704,
			"uri":"model.bin"
		}
	]
}
