<svg width="28" height="28" viewBox="0 0 28 28" fill="none" xmlns="http://www.w3.org/2000/svg">
<path d="M14.1826 0.851562C15.9728 0.851563 17.6897 1.56272 18.9556 2.82859C20.2215 4.09446 20.9326 5.81135 20.9326 7.60156C20.9326 9.39177 20.2215 11.1087 18.9556 12.3745C17.6897 13.6404 15.9728 14.3516 14.1826 14.3516C12.3924 14.3516 10.6755 13.6404 9.40965 12.3745C8.14378 11.1087 7.43262 9.39177 7.43262 7.60156C7.43262 5.81135 8.14378 4.09446 9.40965 2.82859C10.6755 1.56272 12.3924 0.851563 14.1826 0.851562ZM14.1826 17.7266C21.6414 17.7266 27.6826 20.7472 27.6826 24.4766V27.8516H0.682617V24.4766C0.682617 20.7472 6.72387 17.7266 14.1826 17.7266Z" fill="black"/>
</svg>
