<svg xmlns="http://www.w3.org/2000/svg" xmlns:xlink="http://www.w3.org/1999/xlink" width="111.391" height="201.346" viewBox="0 0 111.391 201.346">
  <defs>
    <clipPath id="clip-path">
      <rect id="Rectangle_1417" data-name="Rectangle 1417" width="201.346" height="111.391" fill="#fff"/>
    </clipPath>
  </defs>
  <g id="about-natural" transform="translate(111.391) rotate(90)">
    <g id="Group_48" data-name="Group 48" transform="translate(0 0)" clip-path="url(#clip-path)">
      <path id="Path_134" data-name="Path 134" d="M24.416,65.389a14.307,14.307,0,0,0-3.057,6.777c-1.159,8.291.932,24.319,30.012,34.413,40.621,14.1,82.444-27.433,68.347-64.841S70.555.146,70.555.146,34.023-3.644,30.26,27.352a30.651,30.651,0,0,0-.2,3.421c-.047,5.821-.563,28.133-5.646,34.616" transform="translate(78.836 0.002)" fill="#fff"/>
      <path id="Path_135" data-name="Path 135" d="M111.911,9.073h0a26.12,26.12,0,0,1-.757,7.027c-.038.156-.08.308-.123.459a13.989,13.989,0,0,1-2.2,4.491v0l-.024-.009-.024,0c-.142-.043-.606-.175-1.358-.364a182.607,182.607,0,0,0-23.349-3.5,258.845,258.845,0,0,0-27.347-1.2c-9.507.1-19.686.667-46.13,14.6a66.937,66.937,0,0,0-6.526,5.106,3.159,3.159,0,0,1-2.125-3.095l.019-.487A71.434,71.434,0,0,1,26.926,17.416l.047-.019c.208-.071.416-.147.62-.213s.412-.142.615-.208c.156-.052.308-.1.464-.151.208-.071.421-.137.634-.2a1.6,1.6,0,0,1,.161-.052c.256-.085.511-.161.767-.241s.478-.147.719-.213c.35-.109.7-.208,1.055-.308.241-.071.483-.137.729-.2s.506-.137.757-.2l.156-.043.757-.2.076-.019c.256-.062.511-.128.767-.189.208-.052.416-.1.625-.151.132-.033.265-.062.4-.095.218-.047.435-.1.653-.151l.842-.185c.3-.066.606-.133.909-.194l.771-.156c.279-.057.558-.114.842-.166s.558-.109.842-.156.558-.1.838-.151.563-.1.842-.147.563-.095.842-.137.558-.085.838-.133c.459-.066.923-.137,1.382-.2.194-.028.393-.057.592-.08.459-.062.923-.123,1.382-.18.251-.033.5-.062.757-.09q.83-.1,1.661-.185c.208-.024.416-.043.629-.062,1.666-.166,3.331-.3,4.978-.4l.468-.028c.667-.043,1.334-.076,2-.1.194-.014.388-.019.582-.028q.937-.043,1.86-.071l.61-.014c.2,0,.4-.014.6-.019l.653-.014.8-.014c.213,0,.421,0,.629-.009H64.4c.393-.009.781-.009,1.169-.009.232,0,.464,0,.691,0h.516c1.377,0,2.73.019,4.07.047l.573.014,1.136.028c.189,0,.379.009.563.019l.563.014q1.5.05,2.958.114c.18.009.36.014.544.024.118,0,.237.009.355.019.185,0,.364.014.544.024s.355.014.535.024c1.808.09,3.544.147,5.2.18.3,0,.6.009.89.009.2,0,.4,0,.6.009h1.292a103.578,103.578,0,0,0,20.348-1.77h.009a35.364,35.364,0,0,0,4.959-1.3h0" transform="translate(7.284 33.864)" fill="#fff"/>
      <path id="Path_136" data-name="Path 136" d="M12.339,14.258c8.438,1.959,19.137,11.026,22.374,22.218,2.1,7.283,1.046,15.46-5.84,23.159,0,0-1.732-5.948-11.845-9.048S-5.544,30.655,2.666,17.168a6.524,6.524,0,0,1,1.666-1.86c.076-.057.151-.114.227-.166a7.012,7.012,0,0,1,2.243-1,11.79,11.79,0,0,1,5.537.114" transform="translate(0.003 51.753)" fill="#fff"/>
    </g>
  </g>
</svg>
