<svg id="logo" xmlns="http://www.w3.org/2000/svg" xmlns:xlink="http://www.w3.org/1999/xlink" width="474.635" height="214.707" viewBox="0 0 474.635 214.707">
  <defs>
    <clipPath id="clip-path">
      <rect id="Rectangle_34" data-name="Rectangle 34" width="474.635" height="214.517" fill="#db1f26"/>
    </clipPath>
  </defs>
  <rect id="Rectangle_30" data-name="Rectangle 30" width="66.706" height="214.707" fill="#db1f26"/>
  <rect id="Rectangle_31" data-name="Rectangle 31" width="66.704" height="214.707" transform="translate(253.036)" fill="#db1f26"/>
  <rect id="Rectangle_32" data-name="Rectangle 32" width="66.706" height="214.707" transform="translate(329.641)" fill="#db1f26"/>
  <rect id="Rectangle_33" data-name="Rectangle 33" width="66.704" height="138.254" transform="translate(406.249 76.453)" fill="#db1f26"/>
  <g id="Group_23" data-name="Group 23">
    <g id="Group_22" data-name="Group 22" clip-path="url(#clip-path)">
      <path id="Path_120" data-name="Path 120" d="M209.862,107.043a86.781,86.781,0,1,0-86.782,86.78,86.781,86.781,0,0,0,86.782-86.78m-118.714,0a31.933,31.933,0,1,1,31.932,31.932,31.934,31.934,0,0,1-31.932-31.932" transform="translate(37.074 20.694)" fill="#db1f26"/>
      <path id="Path_121" data-name="Path 121" d="M235.186,69.639a34.82,34.82,0,1,1,34.821-34.821,34.821,34.821,0,0,1-34.821,34.821" transform="translate(204.629 0)" fill="#db1f26"/>
    </g>
  </g>
</svg>
