<svg xmlns="http://www.w3.org/2000/svg" xmlns:xlink="http://www.w3.org/1999/xlink" width="160.141" height="179.863" viewBox="0 0 160.141 179.863">
  <defs>
    <clipPath id="clip-path">
      <rect id="Rectangle_1424" data-name="Rectangle 1424" width="152.751" height="124.86" fill="#fcd017"/>
    </clipPath>
  </defs>
  <g id="natural-second" transform="translate(-539.43 -1896.031)">
    <g id="Group_53" data-name="Group 53" transform="matrix(0.259, -0.966, 0.966, 0.259, 539.43, 2043.577)">
      <g id="Group_52" data-name="Group 52" transform="translate(0 0)" clip-path="url(#clip-path)">
        <path id="Path_147" data-name="Path 147" d="M91.172,91.316a39.772,39.772,0,0,0-8.62-9.662,47,47,0,0,0-5.426-24.271,6.968,6.968,0,0,1,1.814-.678c3.757-.692,7.78-3.54,11.721-7.319,7.009-6.63,5.267-19.692,5.267-19.692a20.859,20.859,0,0,0-9.482,1.752,20.307,20.307,0,0,0,.09-3.944C85.454,13.264,69.634,0,69.634,0S60.116,6.6,57.372,16.862a4.908,4.908,0,0,0-.418-.447C43.282,2.149,22.231,4.943,22.231,4.943a47.1,47.1,0,0,0-.256,11.552c.4.407.8.836,1.172,1.276A19.764,19.764,0,0,1,27.592,29.33,19.794,19.794,0,0,1,51.5,50.684l-.04.324A19.775,19.775,0,0,1,42.9,65.087a19.885,19.885,0,0,1,5.833,11.681,18.8,18.8,0,0,1,5.224-.177,19.27,19.27,0,0,1,6.717,1.936C77.569,82.465,84.9,94.164,85.2,94.788ZM66.137,72.828a19.5,19.5,0,0,0,5.141-8.476,7.759,7.759,0,0,1,.642-1.813,40.619,40.619,0,0,1,3.8,14.429,49.039,49.039,0,0,0-9.583-4.139" transform="translate(56.629 0)" fill="#fcd017"/>
        <path id="Path_148" data-name="Path 148" d="M39.066,51.932A14.691,14.691,0,1,1,55.352,39.021,14.7,14.7,0,0,1,39.066,51.932" transform="translate(67.861 58.997)" fill="#fcd017"/>
        <path id="Path_149" data-name="Path 149" d="M48,43.478a19.9,19.9,0,0,1-8.281-15.6A14.663,14.663,0,1,0,48,43.478" transform="translate(49.03 69.015)" fill="#fcd017"/>
        <path id="Path_150" data-name="Path 150" d="M33.271,43.67a20.621,20.621,0,0,1,4.8,1.107A19.959,19.959,0,0,1,49.023,31.614,14.682,14.682,0,1,0,25.646,44.4a19.9,19.9,0,0,1,7.625-.732" transform="translate(51.303 46.723)" fill="#fcd017"/>
        <path id="Path_151" data-name="Path 151" d="M31.713,50a19.813,19.813,0,0,1,8.664-12.37,19.822,19.822,0,0,1-6.061-14.1,14.694,14.694,0,1,0-8.938,27.249A15,15,0,0,0,31.713,50" transform="translate(31.507 55.912)" fill="#fcd017"/>
        <path id="Path_152" data-name="Path 152" d="M26.539,38.678a19.7,19.7,0,0,1,6.273,1.713A19.993,19.993,0,0,1,42.3,28.359,14.682,14.682,0,1,0,18.961,39.417a19.946,19.946,0,0,1,7.578-.739" transform="translate(33.753 33.627)" fill="#fcd017"/>
        <path id="Path_153" data-name="Path 153" d="M23.312,24.042a19.8,19.8,0,0,1,4.449,11.364,19.425,19.425,0,0,1,6.436-.454,19.89,19.89,0,0,1,7.391,2.257A14.677,14.677,0,1,0,20.511,21.241a20.987,20.987,0,0,1,2.8,2.8" transform="translate(53.438 24.655)" fill="#fcd017"/>
        <path id="Path_154" data-name="Path 154" d="M33.384,31.715a19.952,19.952,0,0,1,9.763-11.862A14.683,14.683,0,1,0,19.814,30.864a19.567,19.567,0,0,1,7.575-.725,19.864,19.864,0,0,1,6,1.576" transform="translate(35.968 11.329)" fill="#fcd017"/>
        <path id="Path_155" data-name="Path 155" d="M23.715,45.77A19.786,19.786,0,0,1,32.57,31.846a22.732,22.732,0,0,1-1.543-1.669,19.639,19.639,0,0,1-4.485-12.1,14.675,14.675,0,1,0-7.589,27.938,14.887,14.887,0,0,0,4.763-.249" transform="translate(14.956 43.617)" fill="#fcd017"/>
        <path id="Path_156" data-name="Path 156" d="M20.185,33.958a20.158,20.158,0,0,1,4.781,1.107,19.863,19.863,0,0,1,8.487-11.782A19.9,19.9,0,0,1,27.421,9.531,14.674,14.674,0,0,0,12.607,34.7a19.874,19.874,0,0,1,7.578-.739" transform="translate(17.195 21.319)" fill="#fcd017"/>
        <path id="Path_157" data-name="Path 157" d="M15.9,41.116a19.9,19.9,0,0,1,8.747-12.965A19.728,19.728,0,0,1,18.7,12.017c-.451-.05-.894-.1-1.352-.155a14.691,14.691,0,1,0-5.3,28.9,14.456,14.456,0,0,0,2.4.238,12.882,12.882,0,0,0,1.442.115" transform="translate(0 30.27)" fill="#fcd017"/>
      </g>
    </g>
  </g>
</svg>
