<svg xmlns="http://www.w3.org/2000/svg" xmlns:xlink="http://www.w3.org/1999/xlink" width="118.455" height="214.114" viewBox="0 0 118.455 214.114">
  <defs>
    <clipPath id="clip-path">
      <rect id="Rectangle_1417" data-name="Rectangle 1417" width="214.114" height="118.455" fill="none"/>
    </clipPath>
  </defs>
  <g id="natural-theme" transform="translate(118.455) rotate(90)">
    <g id="Group_48" data-name="Group 48" transform="translate(0 0)" clip-path="url(#clip-path)">
      <path id="Path_134" data-name="Path 134" d="M24.625,69.536a15.214,15.214,0,0,0-3.251,7.206c-1.233,8.817.991,25.861,31.915,36.595,43.2,14.991,87.673-29.172,72.681-68.952S73.69.156,73.69.156,34.841-3.875,30.84,29.086a32.6,32.6,0,0,0-.211,3.638c-.05,6.19-.6,29.917-6,36.811" transform="translate(85.175 0.002)" fill="#4d000c"/>
      <path id="Path_135" data-name="Path 135" d="M118.884,9.073h0a27.777,27.777,0,0,1-.805,7.473c-.04.166-.086.327-.131.488a14.876,14.876,0,0,1-2.335,4.776v.005l-.025-.01-.025-.005c-.151-.045-.644-.186-1.444-.387a194.187,194.187,0,0,0-24.829-3.719A275.26,275.26,0,0,0,60.208,16.42c-10.11.111-20.934.71-49.055,15.525a71.182,71.182,0,0,0-6.94,5.43,3.359,3.359,0,0,1-2.259-3.291l.02-.518a75.964,75.964,0,0,1,26.535-15.62l.05-.02c.221-.075.443-.156.659-.226s.438-.151.654-.221c.166-.055.327-.111.493-.161.221-.075.448-.146.674-.216a1.7,1.7,0,0,1,.171-.055c.272-.091.543-.171.815-.257.257-.075.508-.156.765-.226.372-.116.745-.221,1.122-.327.257-.075.513-.146.775-.216s.538-.146.805-.216l.166-.045.805-.211.081-.02c.272-.065.543-.136.815-.2.221-.055.443-.111.664-.161.141-.035.282-.065.423-.1.231-.05.463-.106.694-.161l.9-.2c.322-.07.644-.141.966-.206l.82-.166c.3-.06.594-.121.9-.176s.594-.116.9-.166.594-.111.891-.161.6-.106.9-.156.6-.1.9-.146.594-.091.891-.141c.488-.07.981-.146,1.469-.211.206-.03.418-.06.629-.086.488-.065.981-.131,1.469-.191.267-.035.533-.065.805-.1q.883-.106,1.766-.2c.221-.025.443-.045.669-.065,1.771-.176,3.543-.317,5.294-.428l.5-.03c.71-.045,1.419-.081,2.124-.111.206-.015.413-.02.619-.03q1-.045,1.978-.075l.649-.015c.211-.005.428-.015.639-.02l.694-.015.85-.015c.226-.005.448-.005.669-.01h.342c.418-.01.83-.01,1.243-.01.247-.005.493-.005.735-.005h.549c1.464.005,2.9.02,4.328.05l.609.015,1.208.03c.2.005.4.01.6.02l.6.015q1.593.053,3.145.121c.191.01.382.015.579.025.126.005.252.01.377.02.2.005.387.015.579.025s.377.015.569.025c1.922.1,3.769.156,5.53.191.317,0,.634.01.946.01.211.005.423.005.634.01h1.374A110.146,110.146,0,0,0,113.6,10.452h.01a37.607,37.607,0,0,0,5.274-1.379h.005" transform="translate(7.869 36.587)" fill="#4d000c"/>
      <path id="Path_136" data-name="Path 136" d="M13.121,14.283c8.973,2.083,20.351,11.725,23.793,23.627,2.234,7.745,1.112,16.44-6.21,24.628,0,0-1.842-6.326-12.6-9.622s-24-21.2-15.273-35.538A6.938,6.938,0,0,1,4.606,15.4c.081-.06.161-.121.242-.176a7.456,7.456,0,0,1,2.385-1.062,12.537,12.537,0,0,1,5.888.121" transform="translate(0.003 55.914)" fill="#4d000c"/>
    </g>
  </g>
</svg>
