<svg xmlns="http://www.w3.org/2000/svg" xmlns:xlink="http://www.w3.org/1999/xlink" width="469.258" height="495.063" viewBox="0 0 469.258 495.063">
  <defs>
    <clipPath id="clip-path">
      <rect id="Rectangle_1449" data-name="Rectangle 1449" width="469.258" height="201.544" fill="#d0011c"/>
    </clipPath>
    <clipPath id="clip-path-2">
      <rect id="Rectangle_1450" data-name="Rectangle 1450" width="468.468" height="245.731" fill="#fff"/>
    </clipPath>
  </defs>
  <g id="about-logo" transform="translate(-308.87 -353.968)">
    <path id="Union_1" data-name="Union 1" d="M-9793.5,221.9l-36.761,42.289-36.981-32.147,20.028-23.04H-9925V160h76.484L-9908.2,91.347l36.981-32.147L-9818,120.416V0h49V123.112l55.558-63.912,36.979,32.147L-9736.14,160H-9662v49h-77.786l20.028,23.04-36.981,32.147Z" transform="translate(10338 463)" fill="#d0011c"/>
    <g id="Group_64" data-name="Group 64" transform="translate(308.87 353.968)">
      <path id="Path_185" data-name="Path 185" d="M23.694,37.675l14.447.748-4.079,9.336ZM0,37.225,42.033,81.211,50,62.982l-5.707-5.631L52.1,39.476l8.034.3,8.1-18.534L7.39,20.305Z" transform="translate(0 120.328)" fill="#d0011c"/>
      <g id="Group_63" data-name="Group 63" transform="translate(0 0)">
        <g id="Group_62" data-name="Group 62" clip-path="url(#clip-path)">
          <path id="Path_186" data-name="Path 186" d="M3.6,43.889,23.618,19.932c4.945-5.935,9.405-8.54,14-8.941a11.864,11.864,0,0,1,8.851,2.937l.125.1c5.07,4.239,5.638,9.9,3.4,15.812,6.185-4.183,12.072-5.271,17.945-.374l.125.1c6.843,5.728,7.161,15.535-1.884,26.353L46.376,79.626Zm34.373-13.2c-1.9-1.579-4.211-.928-6.767,2.126L26.056,39l5.991,4.994,5.2-6.233c2.549-3.047,2.743-5.381.845-6.974Zm8.893,13.45-6.026,7.21L47.2,56.667l5.97-7.154c2.6-3.124,2.653-5.783.817-7.314l-.118-.1c-1.835-1.531-4.4-1.067-7,2.043" transform="translate(21.345 64.858)" fill="#d0011c"/>
          <path id="Path_187" data-name="Path 187" d="M16.3,51.958l-.083-.139c-9-13.436-5.139-31.561,9.163-41.147S57.693,4.363,66.7,17.8l.09.125c9,13.443,5.132,31.568-9.163,41.154s-32.309,6.31-41.32-7.12m34.955-23.43-.1-.132c-3.678-5.492-10.777-7.923-16.74-3.941-5.887,3.955-6.31,11.338-2.666,16.768l.083.132c3.685,5.492,10.784,7.923,16.74,3.934,5.894-3.948,6.309-11.331,2.68-16.761" transform="translate(67.472 30.636)" fill="#d0011c"/>
          <path id="Path_188" data-name="Path 188" d="M28.133,45.85,19.219,16.422l18.139-5.485L46.2,40.123c2.009,6.635,6.3,8.415,11.1,6.967s7.452-5.1,5.485-11.573L53.828,5.943,71.967.451l8.8,29.04c5.513,18.222-2.909,28.59-18.838,33.411s-28.445.63-33.8-17.052" transform="translate(113.89 2.675)" fill="#d0011c"/>
          <path id="Path_189" data-name="Path 189" d="M45.588,16.573l-16.394.4L28.82,1.2,80.238,0l.367,15.756-16.4.388.949,39.949-18.624.45Z" transform="translate(170.786 0)" fill="#d0011c"/>
          <path id="Path_190" data-name="Path 190" d="M55.593.81l17.772,5.6L61.4,44.388l24.989,7.875L81.606,67.452,38.846,53.981Z" transform="translate(230.196 4.806)" fill="#d0011c"/>
          <path id="Path_191" data-name="Path 191" d="M50.906,18.088l.09-.132C59.792,4.388,77.972.787,92.413,10.137s18.534,27.2,9.752,40.766l-.09.132c-8.8,13.582-26.976,17.183-41.41,7.819s-18.541-27.2-9.759-40.766m35.3,22.862.09-.139c3.588-5.541,3.034-13.021-2.985-16.92-5.949-3.858-12.9-1.33-16.449,4.156l-.09.125c-3.588,5.555-3.027,13.035,2.985,16.934,5.949,3.851,12.9,1.323,16.449-4.156" transform="translate(274.425 29.184)" fill="#d0011c"/>
          <path id="Path_192" data-name="Path 192" d="M93.721,9.762l12.4,13.935L76.372,50.181,93.811,69.754,81.92,80.35,52.076,46.864Z" transform="translate(308.597 57.85)" fill="#d0011c"/>
          <path id="Path_193" data-name="Path 193" d="M105.212,16.042l8.941,16.352L79.205,51.475,91.769,74.469,77.792,82.087,56.3,42.748Z" transform="translate(333.636 95.066)" fill="#d0011c"/>
          <rect id="Rectangle_1448" data-name="Rectangle 1448" width="55.764" height="18.636" transform="translate(410.457 178.002) rotate(-18.751)" fill="#d0011c"/>
        </g>
      </g>
    </g>
    <g id="Group_67" data-name="Group 67" transform="translate(308.87 603.301)">
      <path id="Path_194" data-name="Path 194" d="M23.456,50.75,5.5,30.665l7.709-10.971,43.169-1.918,13.859,15.5L45.356,55.529l4.481,5-9.8,8.768-4.481-5.014-7.182,6.427-12.1-13.533Zm9.62-8.6L44.13,32.272l-18.991,1Z" transform="translate(32.616 105.341)" fill="#fff"/>
      <g id="Group_66" data-name="Group 66" transform="translate(0 0)">
        <g id="Group_65" data-name="Group 65" clip-path="url(#clip-path-2)">
          <path id="Path_195" data-name="Path 195" d="M18.228,48.854l28.479-.533c4.3-.048,6.635-1.053,7.868-2.819,1.344-1.981.824-4.46-1.815-6.268s-6.2-1.842-12.82-.395L35.716,23.27c9.849-2.9,17.682-2.743,27.309,3.865C73.559,34.379,76.793,45.876,70.8,54.617l-.1.132c-4.82,7.023-11.192,8.256-19.164,8L39.7,62.339,57.671,74.695,49.415,86.718,10.561,60.012Z" transform="translate(62.583 127.246)" fill="#fff"/>
          <path id="Path_196" data-name="Path 196" d="M20.883,45l.062-.145c5.305-14.427,19.5-23.811,35.391-17.966s20.5,21.969,15.175,36.4l-.048.145C66.144,77.86,51.967,87.244,36.072,81.4S15.564,59.43,20.883,45m33.134,12.19.055-.145c2.646-7.182,1.24-13.3-3.477-15.036-4.737-1.738-9.572,1.912-12.21,9.094l-.055.152c-2.639,7.175-1.24,13.291,3.484,15.022s9.558-1.912,12.2-9.087" transform="translate(111.242 148.876)" fill="#fff"/>
          <path id="Path_197" data-name="Path 197" d="M29.465,75.193,39.6,63.46a32.229,32.229,0,0,0,19.5,6.774c3.366.042,4.807-.817,4.827-2.334l.007-.152c.014-1.593-1.731-2.493-7.715-3.761-12.508-2.708-23.493-6.427-23.354-18.208v-.159c.145-10.583,8.56-18.679,23.971-18.485,10.8.139,18.755,2.784,25.162,7.958l-9.26,12.467a29.4,29.4,0,0,0-16.719-5.707c-2.8-.035-4.093.9-4.107,2.258v.159c-.021,1.51,1.489,2.493,7.39,3.671,14.267,2.812,23.811,7.071,23.673,18.3v.152c-.145,11.7-9.911,18.748-24.926,18.561-11.352-.145-21.54-3.463-28.583-9.759" transform="translate(174.607 160.775)" fill="#fff"/>
          <path id="Path_198" data-name="Path 198" d="M38.73,63.2l-.028-.159c-4.121-15.625,5.492-31.5,22.2-35.89S93.584,31.7,97.7,47.321l.048.152c4.121,15.632-5.513,31.5-22.2,35.9S42.851,78.82,38.73,63.2M79.552,52.44l-.042-.152c-1.69-6.393-7.612-11-14.565-9.177-6.891,1.822-9.71,8.65-8.048,14.96l.035.166c1.69,6.386,7.612,11,14.565,9.163,6.884-1.815,9.717-8.65,8.055-14.96" transform="translate(223.713 154.224)" fill="#fff"/>
          <path id="Path_199" data-name="Path 199" d="M45.228,40.541,63.561,29.46c19.018-11.49,34.179-7.9,42.719,6.219l.076.132c8.54,14.115,4.9,30.01-14.468,41.715L74.1,88.268ZM69.656,44.78,81.693,64.685l2.673-1.607c7.314-4.433,10.216-10.285,6.053-17.169l-.09-.132c-4.156-6.891-10.7-7.037-18.014-2.611Z" transform="translate(268.017 134.028)" fill="#fff"/>
          <path id="Path_200" data-name="Path 200" d="M53.769,30.783,66.312,17.118l57.333,20.6L109.91,52.669l-7.521-2.881L89.14,64.214,92.713,71.4,79.194,86.114ZM89.514,44.261,76.077,38.879,82.588,51.8Z" transform="translate(318.63 101.442)" fill="#fff"/>
          <path id="Path_201" data-name="Path 201" d="M16.667,30.279l-.152.014A15.047,15.047,0,0,1,13.426.359l.159-.021a15.05,15.05,0,0,1,3.082,29.941" transform="translate(-0.003 1.554)" fill="#d0011c"/>
          <path id="Path_202" data-name="Path 202" d="M79.688.066l.152.021a15.041,15.041,0,0,1-2.847,29.948l-.152-.014A15.045,15.045,0,0,1,79.688.066" transform="translate(375.08 0.005)" fill="#d0011c"/>
        </g>
      </g>
    </g>
  </g>
</svg>
