<svg xmlns="http://www.w3.org/2000/svg" xmlns:xlink="http://www.w3.org/1999/xlink" width="34.318" height="28.702" viewBox="0 0 34.318 28.702">
  <defs>
    <clipPath id="clip-path">
      <rect id="Rectangle_40" data-name="Rectangle 40" width="34.318" height="28.702" transform="translate(0 0)" fill="#db1f26"/>
    </clipPath>
  </defs>
  <g id="cart-icon" transform="translate(0 0.003)">
    <g id="Group_25" data-name="Group 25" transform="translate(0 -0.003)" clip-path="url(#clip-path)">
      <path id="Path_124" data-name="Path 124" d="M16.3,24.566a3.082,3.082,0,1,1-4.714-1.451l-.02-.052L4.544,2.14H1.072A1.072,1.072,0,0,1,1.072,0H5.237A1.067,1.067,0,0,1,6,.31a1.217,1.217,0,0,1,.294.4L8.133,6.142,33.4,6.109c.955,0,1.02.686.83,1.19l-.85,2.661c-.392,1.229-.8,2.4-1.2,3.583l-1.772,5.335c-.19.569-.288,1.236-.961,1.386a6.977,6.977,0,0,1-1.059.052L12.939,20.31l.641,2.223H26.832a3.083,3.083,0,1,1-2.9,2.033H16.3Z" transform="translate(0 0.004)" fill="#db1f26" fill-rule="evenodd"/>
    </g>
  </g>
</svg>
