<svg xmlns="http://www.w3.org/2000/svg" xmlns:xlink="http://www.w3.org/1999/xlink" width="128" height="128" viewBox="0 0 128 128">
  <defs>
    <clipPath id="clip-path">
      <rect id="Rectangle_1423" data-name="Rectangle 1423" width="128" height="128" transform="translate(0 0)" fill="none"/>
    </clipPath>
  </defs>
  <g id="natural-alter" transform="translate(0 0)">
    <g id="Group_50" data-name="Group 50" transform="translate(0 0.001)" clip-path="url(#clip-path)">
      <path id="Path_138" data-name="Path 138" d="M40.235,41.627c.362-3.557.376-9,.5-16.479.114-7.3.155-12.567-.028-16.234C40.011-5.125,1.211,9.569,10.358,21.3c2.413,2.85,6.273,6.621,11.55,11.912,5.146,5.16,8.855,8.931,11.54,11.171,4.612,3.853,6.18,3.174,6.787-2.754M15.446,14.4c2.73,1.068,3.092,6.29,3.092,6.29a13.252,13.252,0,0,1-3.092-6.29m19.722-4.37s.686,4.567-1.11,12.2c0,0-.924-7.283,1.11-12.2m.693,24.855a8.982,8.982,0,0,1,.383,7.507s-1.2-.751-.383-7.507" transform="translate(21.931 7.77)" fill="#d0001b"/>
      <path id="Path_139" data-name="Path 139" d="M21.68,49.607c2.7-2.485,6.373-6.27,11.412-11.547,5.167-5.411,8.975-9.3,11.212-12.084,3.733-4.65,3.088-6.232-2.9-6.728-3.481-.283-8.772-.2-16.058-.141-7.473.065-12.867.041-16.589.383C-5.991,21.423,11.332,59.12,21.68,49.607m-14.435-24a11.363,11.363,0,0,1,8.4-1.327s-4.6,3.143-8.4,1.327M40.6,24.742c-3.626,4.636-10.03,5.567-10.03,5.567,2.109-3.333,10.03-5.567,10.03-5.567" transform="translate(7.47 46.601)" fill="#d0001b"/>
      <path id="Path_140" data-name="Path 140" d="M41.375,40.658c5.994-.458,6.645-2.04,2.937-6.711-2.22-2.8-6-6.7-11.14-12.146-5.012-5.3-8.662-9.11-11.35-11.612C11.53.621-6.008,38.218,8.727,40.234c3.719.362,9.113.369,16.586.476,7.286.1,12.577.217,16.062-.052M7.256,29.177c3.909-1.551,8.286,1.9,8.286,1.9a11.368,11.368,0,0,1-8.286-1.9m23.179-.645s6.321,1.368,9.623,6.242c0,0-7.748-2.775-9.623-6.242" transform="translate(7.514 21.12)" fill="#d0001b"/>
      <path id="Path_141" data-name="Path 141" d="M40.484,59.108c.2-3.664.19-8.937.117-16.234-.076-7.483-.062-12.922-.4-16.479-.572-5.932-2.137-6.621-6.773-2.792-2.692,2.223-6.425,5.973-11.6,11.105-5.308,5.26-9.186,9.006-11.616,11.847C.994,58.232,39.708,73.139,40.484,59.108M37.5,27.046a8.979,8.979,0,0,1-.9,7.462c-.355-6.794.9-7.462.9-7.462M18.021,48.123s-.72,5.184-3.516,6.063a13.232,13.232,0,0,1,3.516-6.063m17.423-1.351c1.265,7.738.269,12.246.269,12.246-1.692-5.043-.269-12.246-.269-12.246" transform="translate(21.51 51.921)" fill="#d0001b"/>
      <path id="Path_142" data-name="Path 142" d="M26.2,44.28c2.713-2.206,6.473-5.928,11.685-11.019,5.346-5.222,9.255-8.941,11.705-11.76C58.893,9.889,20.289-5.3,19.41,8.72c-.227,3.664-.255,8.937-.238,16.234.021,7.483-.034,12.922.283,16.482.527,5.939,2.089,6.635,6.749,2.844M41.421,20.787s.431-5.218,3.174-6.249a13.221,13.221,0,0,1-3.174,6.249M24.932,9.909c1.968,4.939.951,12.212.951,12.212-1.7-7.655-.951-12.212-.951-12.212M23.915,34.754c.734,6.766-.479,7.5-.479,7.5a8.975,8.975,0,0,1,.479-7.5" transform="translate(46.899 7.557)" fill="#d0001b"/>
      <path id="Path_143" data-name="Path 143" d="M59.414,19.791c-3.716-.386-9.11-.431-16.582-.6-7.286-.159-12.574-.307-16.058-.065-6,.414-6.663,1.989-2.988,6.687,2.2,2.816,5.956,6.752,11.05,12.229C39.808,43.388,43.428,47.22,46.1,49.74c10.22,9.647,28.036-27.819,13.315-29.949m1.43,6.139C57.032,27.7,52.468,24.5,52.468,24.5a11.349,11.349,0,0,1,8.376,1.434M27.5,24.63s7.89,2.337,9.954,5.7c0,0-6.387-1.017-9.954-5.7" transform="translate(52.658 46.492)" fill="#d0001b"/>
      <path id="Path_144" data-name="Path 144" d="M42.808,40.636c7.473-.01,12.867.055,16.589-.259C74.157,38.554,57.112.729,46.7,10.163c-2.723,2.468-6.418,6.225-11.5,11.464-5.208,5.374-9.044,9.23-11.3,12-3.764,4.622-3.137,6.211,2.854,6.745,3.478.314,8.769.272,16.058.262m18.2-11.3A11.355,11.355,0,0,1,52.7,31.133s4.422-3.4,8.307-1.792m-23.166-.948c-1.92,3.443-9.7,6.118-9.7,6.118,3.364-4.832,9.7-6.118,9.7-6.118" transform="translate(52.722 21.173)" fill="#d0001b"/>
      <path id="Path_145" data-name="Path 145" d="M49.565,46.807c-2.392-2.871-6.221-6.669-11.464-12-5.108-5.2-8.793-9-11.454-11.257-4.584-3.888-6.163-3.219-6.811,2.706-.389,3.55-.441,8.989-.614,16.472-.172,7.3-.248,12.567-.1,16.234.6,14.042,39.5-.362,30.442-12.157M22.532,26.943s1.244.682.8,7.473a8.975,8.975,0,0,1-.8-7.473M45.163,54.379c-2.778-.913-3.436-6.108-3.436-6.108a13.206,13.206,0,0,1,3.436,6.108M24.324,46.693s1.33,7.224-.427,12.239c0,0-.938-4.519.427-12.239" transform="translate(46.596 51.662)" fill="#d0001b"/>
      <path id="Path_146" data-name="Path 146" d="M0,63.769A63.77,63.77,0,0,1,108.863,18.678a63.769,63.769,0,0,1-90.185,90.181A63.352,63.352,0,0,1,0,63.769m122.264,0a58.493,58.493,0,1,0-58.5,58.492,58.561,58.561,0,0,0,58.5-58.492" transform="translate(0 -0.002)" fill="#d0001b"/>
    </g>
  </g>
</svg>
