<svg xmlns="http://www.w3.org/2000/svg" xmlns:xlink="http://www.w3.org/1999/xlink" width="20.758" height="25" viewBox="0 0 20.758 25">
  <defs>
    <clipPath id="clip-path">
      <rect id="Rectangle_52" data-name="Rectangle 52" width="20.758" height="25" transform="translate(0 0)" fill="#d0011c"/>
    </clipPath>
  </defs>
  <g id="tiktok" transform="translate(0 -0.004)">
    <g id="Group_31" data-name="Group 31" transform="translate(0 0.004)" clip-path="url(#clip-path)">
      <path id="Path_127" data-name="Path 127" d="M20.758,5.765A16.936,16.936,0,0,1,15.922.971L15.317,0H11.656l-.007,16.977c0,.035,0,.067,0,.1,0,.016,0,.031,0,.048a3.779,3.779,0,1,1-3.783-3.776v-4.1a7.874,7.874,0,1,0,7.873,7.874v-9.9a11.776,11.776,0,0,0,5.012,3.04Z" transform="translate(0 -0.004)" fill="#d0011c"/>
    </g>
  </g>
</svg>
