<svg xmlns="http://www.w3.org/2000/svg" width="26.001" height="21.13" viewBox="0 0 26.001 21.13">
  <path id="twitter" d="M163,6.936a10.648,10.648,0,0,1-3.064.84,5.343,5.343,0,0,0,2.345-2.951,10.7,10.7,0,0,1-3.388,1.3,5.336,5.336,0,0,0-9.227,3.65,5.394,5.394,0,0,0,.138,1.215A15.143,15.143,0,0,1,138.81,5.411a5.343,5.343,0,0,0,1.651,7.121,5.323,5.323,0,0,1-2.416-.667v.068a5.334,5.334,0,0,0,4.279,5.229,5.336,5.336,0,0,1-1.406.187,5.519,5.519,0,0,1-1-.094,5.341,5.341,0,0,0,4.983,3.7,10.764,10.764,0,0,1-7.9,2.209,15.17,15.17,0,0,0,23.353-12.781c0-.231,0-.462-.015-.69A10.875,10.875,0,0,0,163,6.936Z" transform="translate(-137 -4.435)" fill="#d0011c"/>
</svg>
